# xmcd
#
# Track frame offsets: 
#        150
#        12769
#        23832
#        30032
#        40495
#        54616
#        69933
#        80773
#        90583
#        101658
#        119366
#        128177
#        137762
#        152012
#
# Disc length: 2165 seconds
#
# Revision: 2
# Processed by: cddbd v1.5.2PL0 Copyright (c) Steve Scherf et al.
# Submitted via: ExactAudioCopy v1.0b3
#
DISCID=ac08730e
DTITLE=Eric Clapton - Telephone Blues
DYEAR=2000
DGENRE=Blues
TTITLE0=Freight Loader (Eric Clapton)
TTITLE1=For Your Love (Eric Clapton and The Yardbirds)
TTITLE2=Choker (Eric Clapton)
TTITLE3=A Certain Girl (Eric Clapton and The Yardbirds)
TTITLE4=Draggin' My Tail (Eric Clapton)
TTITLE5=Train Kept A Rolling (Eric Clapton and The Yardbirds)
TTITLE6=Miles Road (Eric Clapton and Jimmy Page)
TTITLE7=I'm Your Wick Doktor (John Mayall's Bluesbreakers feat. Eric C
TTITLE7=lapton)
TTITLE8=Snake Drive (Eric Clapton)
TTITLE9=Telephone Blues (Eric Clapton and Mayall's Bluesbreakers)
TTITLE10=Talking About You (The Yardbirds feat. Eric Clapton)
TTITLE11=Tribute To Elmore (Eric Clapton and Jimmy Page)
TTITLE12=Out On The Water Coast (The Yardbirds feat. Eric Clapton)
TTITLE13=West Coast Idea (Eric Clapton)
EXTD=
EXTT0=
EXTT1=
EXTT2=
EXTT3=
EXTT4=
EXTT5=
EXTT6=
EXTT7=
EXTT8=
EXTT9=
EXTT10=
EXTT11=
EXTT12=
EXTT13=
PLAYORDER=
